<?xml version="1.0" encoding="utf-8"?>
<!-- Generator: Adobe Illustrator 23.0.3, SVG Export Plug-In . SVG Version: 6.00 Build 0)  -->
<svg version="1.1" id="Layer_1" xmlns="http://www.w3.org/2000/svg" xmlns:xlink="http://www.w3.org/1999/xlink" x="0px" y="0px"
	 viewBox="0 0 363 177" style="enable-background:new 0 0 363 177;" xml:space="preserve">
<style type="text/css">
	.st0{fill:#FFFFFF;}
</style>
<g>
	<path class="st0" d="M106.5,31.8c-0.1,0.3-0.8,3.4-1.8,7.6L106.5,31.8C106.5,31.7,106.5,31.7,106.5,31.8z"/>
	<path class="st0" d="M196.1,82.8c0-3.7-1.7-5.9-4.5-7.3c2.1-1.4,3.5-3.2,3.5-6.3c0-5.5-4.2-8.1-11.4-8.1h-10.6v30.4h11.6
		C192.9,91.6,196.1,87.7,196.1,82.8z M180.5,67.2h2.4c4,0,4.9,1.1,4.9,2.9c0,1.8-1.3,2.7-4.3,2.7h-3.1V67.2z M180.5,85.5v-6.7h3
		c3.7,0,5.4,0.8,5.4,3.3c0,2.2-1.6,3.3-4.8,3.3H180.5z"/>
	<path class="st0" d="M207.4,80.1h3.8l5.1,11.5h8l-6.1-12.8c3.1-1.4,4.8-4.1,4.8-8.1c0-6.3-4.5-9.6-11.5-9.6h-11.5v30.4h7.3V80.1z
		 M207.4,67.2h3.3c3,0,5.1,0.6,5.1,3.5c0,2.9-2.1,3.3-5.1,3.3h-3.3V67.2z"/>
	<path class="st0" d="M234.3,86.4h9.4l1.6,5.2h7.8l-10.6-30.4h-7.1L225,91.6h7.8L234.3,86.4z M239.1,71.3l2.8,9h-5.6L239.1,71.3z"/>
	<rect x="255.8" y="61.2" class="st0" width="7.3" height="30.4"/>
	<polygon class="st0" points="275.7,74.7 286.9,91.6 292.8,91.6 292.8,61.2 286,61.2 286,78.2 274.7,61.2 268.9,61.2 268.9,91.6 
		275.7,91.6 	"/>
	<path class="st0" d="M160.1,120.9l-8.3-23.7h-5.5l-8.3,23.7h6.1l1.2-4.1h7.3l1.3,4.1H160.1z M146.8,112.1l2.2-7l2.2,7H146.8z"/>
	<polygon class="st0" points="164.8,120.9 170.2,120.9 175,105.6 179.9,120.9 185.3,120.9 190.6,97.2 184.4,97.2 181.8,111.5 
		177.5,97.2 172.5,97.2 168.3,111.3 165.7,97.2 159.5,97.2 	"/>
	<path class="st0" d="M212.1,120.9l-8.3-23.7h-5.5l-8.3,23.7h6.1l1.2-4.1h7.3l1.3,4.1H212.1z M198.9,112.1l2.2-7l2.2,7H198.9z"/>
	<path class="st0" d="M231.7,104.6c0-5-3.5-7.5-9-7.5h-8.9v23.7h5.7v-9h3l4,9h6.3l-4.7-10C230.3,109.8,231.7,107.7,231.7,104.6z
		 M222.1,107.2h-2.5v-5.3h2.5c2.3,0,4,0.4,4,2.7C226,106.9,224.4,107.2,222.1,107.2z"/>
	<polygon class="st0" points="273.7,97.2 268.3,97.2 268.3,110.5 259.5,97.2 255,97.2 255,120.9 260.4,120.9 260.4,107.8 
		269.1,120.9 273.7,120.9 	"/>
	<polygon class="st0" points="292.8,101.9 292.8,97.2 277.8,97.2 277.8,120.9 292.8,120.9 292.8,116.2 283.5,116.2 283.5,111 
		291.8,111 291.8,106.3 283.5,106.3 283.5,101.9 	"/>
	<path class="st0" d="M305.4,106.7c-3-0.9-4.2-1.7-4.2-3.1c0-1.2,0.8-2.1,2.7-2.1c2.1,0,3.3,0.6,4.2,2.2l4.2-3
		c-1.7-2.6-4.7-3.9-8.5-3.9c-5.8,0-8.4,2.9-8.4,6.8c0,3.8,2.1,6,6.9,7.6c3.5,1.1,4.5,1.8,4.5,3.2c0,1.1-0.9,2.1-3.1,2.1
		c-2.1,0-3.6-0.7-4.7-2.1l-4.3,3c2.2,2.8,5.2,3.9,9.5,3.9c5.4,0,8.3-2.8,8.3-7.1C312.5,110.1,310.5,108.2,305.4,106.7z"/>
	<path class="st0" d="M325.2,106.7c-3-0.9-4.2-1.7-4.2-3.1c0-1.2,0.8-2.1,2.7-2.1c2.1,0,3.3,0.6,4.2,2.2l4.2-3
		c-1.7-2.6-4.7-3.9-8.5-3.9c-5.8,0-8.4,2.9-8.4,6.8c0,3.8,2.1,6,6.9,7.6c3.5,1.1,4.5,1.8,4.5,3.2c0,1.1-0.9,2.1-3.1,2.1
		c-2.1,0-3.6-0.7-4.7-2.1l-4.3,3c2.2,2.8,5.2,3.9,9.5,3.9c5.4,0,8.3-2.8,8.3-7.1C332.4,110.1,330.4,108.2,325.2,106.7z"/>
	<polygon class="st0" points="143.6,137.4 140,125.5 135.8,125.5 132.3,137.4 130.1,125.5 124.9,125.5 129.3,145.4 133.9,145.4 
		137.9,132.5 142,145.4 146.5,145.4 151,125.5 145.8,125.5 	"/>
	<polygon class="st0" points="152.8,145.4 165.4,145.4 165.4,141.4 157.6,141.4 157.6,137.1 164.6,137.1 164.6,133.1 157.6,133.1 
		157.6,129.4 165.4,129.4 165.4,125.5 152.8,125.5 	"/>
	<polygon class="st0" points="167.9,145.4 180.5,145.4 180.5,141.4 172.7,141.4 172.7,137.1 179.6,137.1 179.6,133.1 172.7,133.1 
		172.7,129.4 180.5,129.4 180.5,125.5 167.9,125.5 	"/>
	<polygon class="st0" points="198.4,125.5 192.9,125.5 187.7,132.8 187.7,125.5 182.9,125.5 182.9,145.4 187.7,145.4 187.7,140.1 
		189.5,137.7 193.8,145.4 199.5,145.4 192.6,133.5 	"/>
	<polygon class="st0" points="236,120.9 251,120.9 251,116.2 241.7,116.2 241.7,111 250,111 250,106.3 241.7,106.3 241.7,101.9 
		251,101.9 251,97.2 236,97.2 	"/>
	<path class="st0" d="M211.8,126c-0.7-0.4-1.5-0.5-2.4-0.5h-2.9c-0.2,0-0.4,0.2-0.4,0.4v7.8c0,0.2,0.2,0.4,0.4,0.4h2.9
		c0.9,0,1.7-0.2,2.4-0.5s1.3-0.9,1.7-1.5c0.4-0.6,0.6-1.4,0.6-2.3c0-0.9-0.2-1.6-0.6-2.3C213,126.9,212.5,126.4,211.8,126z
		 M211.3,131.7c-0.5,0.5-1,0.7-2,0.7h-1.1c-0.1,0-0.2-0.1-0.2-0.2v-4.9c0-0.1,0.1-0.2,0.2-0.2h1.1c1,0,1.5,0.2,2,0.7
		c0.5,0.5,0.8,1.1,0.8,1.9C212,130.6,211.8,131.2,211.3,131.7z"/>
	<path class="st0" d="M217.7,127.4c-0.5,0-1,0.1-1.5,0.2c-0.5,0.1-0.9,0.3-1.3,0.6l0.4,0.8c0.1,0.3,0.4,0.4,0.7,0.2
		c0.1-0.1,0.3-0.1,0.4-0.2c0.3-0.1,0.7-0.2,1-0.2c0.5,0,0.9,0.1,1.1,0.3c0.3,0.2,0.4,0.5,0.4,1h-1.5c-1,0-1.7,0.2-2.1,0.5
		c-0.5,0.4-0.7,0.8-0.7,1.4c0,0.4,0.1,0.7,0.3,1c0.2,0.3,0.5,0.5,0.8,0.7c0.4,0.2,0.8,0.3,1.3,0.3c1,0,1.6-0.3,2-0.9v0.8h1.2
		c0.3,0,0.5-0.2,0.5-0.6v-3.2c0-1-0.3-1.7-0.8-2.2C219.5,127.6,218.7,127.4,217.7,127.4z M219,132c-0.1,0.3-0.3,0.5-0.5,0.7
		c-0.3,0.2-0.5,0.2-0.9,0.2c-0.3,0-0.6-0.1-0.8-0.2c-0.2-0.1-0.3-0.3-0.3-0.6c0-0.5,0.4-0.8,1.2-0.8h1.3V132z"/>
	<path class="st0" d="M226.3,127.4c-0.4,0-0.9,0.1-1.2,0.2c-0.4,0.2-0.7,0.4-0.9,0.6v-0.8h-1.3c-0.3,0-0.5,0.2-0.5,0.6v6h1.3
		c0.3,0,0.5-0.2,0.5-0.6v-2.7c0-0.6,0.1-1,0.4-1.3c0.3-0.3,0.7-0.4,1.1-0.4c0.4,0,0.8,0.1,1,0.4c0.2,0.3,0.3,0.6,0.3,1.2v3.5h1.3
		c0.3,0,0.5-0.2,0.5-0.6v-3.2c0-1-0.2-1.7-0.7-2.2C227.7,127.6,227.1,127.4,226.3,127.4z"/>
	<path class="st0" d="M233,127.4c-0.5,0-1,0.1-1.5,0.2c-0.5,0.1-0.9,0.3-1.3,0.6l0.4,0.8c0.1,0.3,0.5,0.4,0.7,0.2
		c0.1-0.1,0.3-0.1,0.4-0.2c0.3-0.1,0.7-0.2,1-0.2c0.5,0,0.9,0.1,1.1,0.3c0.3,0.2,0.4,0.5,0.4,1h-1.5c-1,0-1.7,0.2-2.1,0.5
		c-0.5,0.4-0.7,0.8-0.7,1.4c0,0.4,0.1,0.7,0.3,1c0.2,0.3,0.5,0.5,0.8,0.7c0.4,0.2,0.8,0.3,1.3,0.3c1,0,1.6-0.3,2-0.9v0.8h1.2
		c0.3,0,0.5-0.2,0.5-0.6v-3.2c0-1-0.3-1.7-0.8-2.2C234.8,127.6,234,127.4,233,127.4z M234.3,132c-0.1,0.3-0.3,0.5-0.5,0.7
		c-0.3,0.2-0.5,0.2-0.9,0.2c-0.3,0-0.6-0.1-0.8-0.2c-0.2-0.1-0.3-0.3-0.3-0.6c0-0.5,0.4-0.8,1.2-0.8h1.3V132z"/>
	<polygon class="st0" points="239.9,134 240.6,134 240.6,130.2 244.4,130.2 244.4,129.5 240.6,129.5 240.6,126.2 244.8,126.2 
		244.8,125.6 239.9,125.6 	"/>
	<path class="st0" d="M247.8,127.8c-1.6,0-2.5,0.9-2.5,2.7v0.9c0,1.7,0.9,2.7,2.5,2.7c1.6,0,2.5-1,2.5-2.7v-0.9
		C250.3,128.8,249.3,127.8,247.8,127.8z M249.6,131.4c0,1.3-0.6,2.1-1.8,2.1c-1.2,0-1.8-0.8-1.8-2.1v-0.9c0-1.3,0.6-2.1,1.8-2.1
		c1.2,0,1.8,0.7,1.8,2.1V131.4z"/>
	<path class="st0" d="M255.6,131.6c0,1.1-0.6,1.9-1.7,1.9c-0.9,0-1.6-0.6-1.6-1.9v-3.6h-0.7v3.6c0,1.7,0.9,2.6,2.2,2.6
		c0.9,0,1.5-0.3,1.8-0.9v0.8h0.7v-6.1h-0.7V131.6z"/>
	<path class="st0" d="M260.3,127.8c-0.9,0-1.5,0.3-1.8,0.9v-0.8h-0.7v6.1h0.7v-3.7c0-1.1,0.6-1.9,1.7-1.9c1,0,1.6,0.6,1.6,2v3.6h0.7
		v-3.6C262.5,128.7,261.6,127.8,260.3,127.8z"/>
	<path class="st0" d="M268,128.7c-0.3-0.6-0.9-0.9-1.8-0.9c-1.5,0-2.4,0.9-2.4,2.7v0.9c0,1.7,0.8,2.7,2.4,2.7c0.9,0,1.5-0.3,1.8-0.8
		v0.7h0.7v-8.5H268V128.7z M268,131.4c0,1.2-0.4,2.1-1.8,2.1c-1.2,0-1.8-0.8-1.8-2.1v-0.9c0-1.3,0.6-2.1,1.8-2.1
		c1.3,0,1.8,0.8,1.8,2.1V131.4z"/>
	<path class="st0" d="M272.3,127.8c-1.1,0-1.7,0.3-2.1,1l0.5,0.4c0.4-0.7,0.9-0.7,1.6-0.7c1.1,0,1.5,0.3,1.5,1.3v0.8h-1.8
		c-1.3,0-2.1,0.6-2.1,1.7c0,1.2,0.8,1.8,2.1,1.8c0.8,0,1.4-0.2,1.7-0.8v0.8h0.7v-4.2C274.5,128.3,273.8,127.8,272.3,127.8z
		 M273.8,131.7c0,1.4-0.7,1.7-1.7,1.7c-0.9,0-1.5-0.3-1.5-1.2c0-0.7,0.4-1.1,1.4-1.1h1.8V131.7z"/>
	<path class="st0" d="M277,126.5h-0.7v1.4h-0.8v0.6h0.8v3.6c0,1.3,0.4,1.9,1.7,1.9h0.4v-0.7h-0.4c-1,0-1.1-0.4-1.1-1.4v-3.4h1.5
		v-0.6H277V126.5z"/>
	<rect x="279.9" y="127.9" class="st0" width="0.7" height="6.1"/>
	<rect x="279.8" y="125.6" class="st0" width="0.8" height="0.8"/>
	<path class="st0" d="M284.5,127.8c-1.6,0-2.5,0.9-2.5,2.7v0.9c0,1.7,0.9,2.7,2.5,2.7c1.6,0,2.5-1,2.5-2.7v-0.9
		C287,128.8,286.1,127.8,284.5,127.8z M286.3,131.4c0,1.3-0.6,2.1-1.8,2.1c-1.2,0-1.8-0.8-1.8-2.1v-0.9c0-1.3,0.6-2.1,1.8-2.1
		c1.2,0,1.8,0.7,1.8,2.1V131.4z"/>
	<path class="st0" d="M290.7,127.8c-0.9,0-1.5,0.3-1.8,0.9v-0.8h-0.7v6.1h0.7v-3.7c0-1.1,0.6-1.9,1.7-1.9c1,0,1.6,0.6,1.6,2v3.6h0.7
		v-3.6C293,128.7,292.1,127.8,290.7,127.8z"/>
	<path class="st0" d="M76.1,64.2c0-0.2-0.1-0.3-0.2-0.5c-0.3-0.6-1-1-1.7-1c0,0-0.1,0-0.1,0c-0.1,0-0.2,0-0.3,0
		c-0.5,0.1-0.9,0.4-1.1,0.8c-0.3,0.4-0.4,1-0.2,1.5c0.3,1,1.3,1.6,2.3,1.4c0.6-0.1,1-0.6,1.3-1.1C76.2,65.1,76.2,64.7,76.1,64.2z"/>
	<path class="st0" d="M102,72.8c0-0.1,0-0.2-0.1-0.3c-0.5-1.8-1.6-3.3-3.2-4.2c-0.3-0.2-0.6-0.3-0.9-0.4c-0.5-0.2-0.9-0.3-1.4-0.4
		c-0.4-0.1-0.8-0.1-1.2-0.1c-0.6,0-1.1,0.1-1.7,0.2c-0.5,0.1-1.1,0.3-1.5,0.6c-1.1,0.6-2,1.5-2.7,2.6c-0.3,0.5-0.5,1-0.7,1.6
		c-0.3,1.2-0.4,2.4-0.1,3.6c0.4,1.8,1.5,3.2,3.1,4.2c0,0,0.1,0,0.1,0.1c0.4,0.3,0.9,0.4,1.3,0.6c1.3,0.4,2.6,0.5,3.9,0.2
		c0.3-0.1,0.7-0.2,1-0.3c0.5-0.2,0.9-0.4,1.3-0.7c0.8-0.5,1.4-1.3,1.9-2.1c0.6-1.1,1-2.3,1-3.5C102.2,73.8,102.1,73.3,102,72.8z"/>
	<g>
		<path class="st0" d="M60.2,87.4c-0.4-0.3-0.9-0.4-1.4-0.4c-0.2,0-0.5,0-0.7,0.1c-0.7,0.2-1.3,0.6-1.7,1.3
			c-0.4,0.6-0.5,1.4-0.3,2.1c0.2,0.7,0.6,1.3,1.3,1.7c0.6,0.4,1.4,0.5,2.1,0.3c0.7-0.2,1.3-0.6,1.7-1.3c0.4-0.6,0.5-1.4,0.3-2.1
			C61.3,88.4,60.9,87.8,60.2,87.4z"/>
		<path class="st0" d="M72.4,35.6c0.4,0.8,14.7,24.1,17.7,29.1c0.8-0.4,1.6-0.8,2.5-1c1.5-0.4,3-0.4,4.5-0.2
			c0.6-2.4,1.4-5.9,2.3-9.6c-0.4-0.2-0.9-0.3-1.3-0.6c-1.7-1-2.9-2.6-3.4-4.6c-0.5-1.9-0.2-3.9,0.8-5.6c1-1.7,2.6-2.9,4.6-3.4
			c0.9-0.2,1.8-0.3,2.7-0.2c0.7-3,1.2-5.1,1.2-5.2c0.3-1.3-1.2-2-1.3-2c0,0,0,0,0,0l-1.5-0.4c-0.3-0.1-0.7-0.2-1.1-0.3l-0.3-0.1
			c-0.1,0-0.2,0-0.2-0.1l-0.3-0.1c-4.1-1-12.2-2.3-20.9-0.1c-1.7,0.4-3.4,1-5,1.6C73.3,32.9,71.8,34.5,72.4,35.6z"/>
		<path class="st0" d="M51.7,50.5c0.4,0.3,10.4,5.6,19.8,10.6c0.5-0.4,1-0.7,1.7-0.8c2.4-0.6,4.9,0.9,5.5,3.3c0.1,0.5,0.1,1,0.1,1.4
			c2.9,1.6,5.4,2.9,7.1,3.8c0,0,0-0.1,0.1-0.1c0.7-1.2,1.6-2.2,2.6-3c-2.9-4.8-17.1-28.2-17.3-28.5c-1-1.5-2-1.6-2.6-1.6
			c0,0-0.1,0-0.1,0c0,0-0.1,0-0.1,0c-0.2,0.1-0.4,0.2-0.6,0.3c-2.7,1.7-5.2,3.9-7.4,6.3l-0.2,0.2l-0.3,0.1c-1.2,0.5-4.5,2-8.2,4.5
			c0,0,0,0,0,0C51.7,47.1,50.1,49.6,51.7,50.5z"/>
		<path class="st0" d="M90.7,122.6c0.1-0.8,2.2-29.8,2.8-37.6c-1.1-0.2-2.1-0.5-3.1-1c-3.2,3.7-9.8,11.3-16.5,19.1
			c0.8,0.9,1.4,2,1.7,3.2c0.5,1.9,0.2,3.9-0.8,5.6c-1,1.7-2.6,2.9-4.6,3.4c-0.6,0.2-1.2,0.2-1.8,0.2c-1.5,0-2.9-0.5-4.1-1.3
			c-1.1,1.3-1.8,2.1-1.8,2.1c-2.5,3,0.3,4.2,0.3,4.2c0.2,0.1,0.4,0.1,0.6,0.1c1.3,0,2.4-0.1,3.5-0.2l1.2-0.1l0.4,1.1
			c0.7,2,1.4,5,1.1,7.8c-0.8,6.4-0.5,14.5,2.9,16c0.7,0.3,1.3,0.4,2,0.2c1.1-0.3,2.3-1.2,3.6-2.6c2.9-3.3,4.5-6.6,6.1-9.8
			c1.6-3.2,2.9-5.9,5.3-7.8c0,0,0,0,0,0C89.3,125.1,90.5,124.1,90.7,122.6z"/>
		<path class="st0" d="M114.2,107.8c0-0.1,0-0.2,0-0.2c0-0.1,0-0.2-0.1-0.4c-0.1-0.2-1.3-2.1-2.9-4.8c-0.1,0-0.3,0.1-0.4,0.1
			c-0.4,0.1-0.7,0.1-1.1,0.1c-2,0-3.9-1.4-4.4-3.4c-0.4-1.7,0.2-3.3,1.3-4.4c-2.7-4.5-5.4-9-6.6-10.9c-0.7,0.3-1.4,0.6-2.1,0.8
			c-0.9,0.2-1.8,0.3-2.7,0.3c0,0,0,0,0,0c-0.6,8.3-2.5,32.8-2.5,33.1c-0.2,3.6,2.2,3.3,2.6,3.2c2.9-2.4,4.7-6,5.4-10.7l0.2-1.5
			l1.5,0.3c3.4,0.6,6.7,0.7,9.8,0.2c0.1,0,0.1,0,0.2,0h0C112.5,109.7,114,108.7,114.2,107.8z"/>
		<path class="st0" d="M73,106.8c-0.2-0.7-0.6-1.4-1-1.9c-0.3-0.4-0.7-0.7-1.1-1c-0.7-0.5-1.6-0.7-2.5-0.7c-0.4,0-0.8,0-1.2,0.1
			c-1.2,0.3-2.3,1.1-2.9,2.2c-0.7,1.1-0.8,2.4-0.5,3.6c0.2,0.7,0.5,1.3,1,1.9c0.3,0.4,0.7,0.7,1.1,1c1.1,0.7,2.4,1,3.8,0.6
			c1.2-0.3,2.3-1.1,2.9-2.2C73.1,109.4,73.3,108.1,73,106.8z"/>
		<path class="st0" d="M106.5,31.7l-1.8,7.7c0,0.2-0.1,0.4-0.1,0.6c0.4,0.2,0.8,0.3,1.2,0.6c1.7,1,2.9,2.6,3.4,4.6
			c0.3,1.3,0.3,2.7-0.1,3.9l23.2,8.9c0.8-1,1.9-1.8,3.1-2.1c1.5-0.4,3-0.2,4.4,0.6c0.9,0.5,1.6,1.3,2.1,2.2
			c7.5-2.6,13.2-4.6,13.4-4.6c1.3-0.5,1.2-2.2,1.2-2.3c0-0.1-0.1-0.3-0.1-0.4c-1.6-3.1-6.1-10.6-13.8-13.6c-7.7-3-15.2-3-18-2.9
			l-0.5,0l-0.4-0.3c-4.5-3.5-10.1-5.2-14.9-4.7c-0.1,0-0.2,0-0.3,0.1C108.1,30,106.8,30.8,106.5,31.7z"/>
		<path class="st0" d="M106.6,45.8c-0.3-1.2-1.1-2.3-2.2-2.9c-0.1-0.1-0.3-0.2-0.4-0.2c-0.5-0.2-0.9-0.4-1.4-0.4c-0.2,0-0.4,0-0.6,0
			c-0.4,0-0.8,0-1.2,0.1c-1.2,0.3-2.3,1.1-2.9,2.2c-0.7,1.1-0.8,2.4-0.5,3.6c0.3,1.2,1.1,2.3,2.2,2.9c0.3,0.2,0.6,0.3,0.9,0.4
			c0.5,0.2,1,0.2,1.5,0.3c0.4,0,0.9,0,1.3-0.1C105.6,51,107.2,48.4,106.6,45.8z"/>
		<path class="st0" d="M103.7,54.2c-0.6,0.2-1.2,0.2-1.8,0.2c-0.2,0-0.5,0-0.7,0c-0.9,3.8-1.7,7.2-2.3,9.6c0.7,0.2,1.3,0.5,1.9,0.9
			c2.4,1.4,4.1,3.6,4.9,6.3c4.2-1.4,15-5.1,25.4-8.7c-0.2-0.9-0.1-1.8,0.2-2.7l-23-8.9C107.3,52.4,105.7,53.7,103.7,54.2z"/>
		<path class="st0" d="M158.6,55.4c-0.1,0-0.2-0.1-0.4-0.1c-0.1,0-0.1,0-0.2,0c-0.1,0-0.1,0-0.2,0c-0.1,0-0.2,0-0.3,0
			c-0.1,0-0.2,0-0.2,0.1c-0.3,0.1-6.7,2.3-14.9,5.1c0.2,1.3,0,2.7-0.7,3.9c-0.8,1.3-2,2.3-3.5,2.6c-0.5,0.1-0.9,0.2-1.4,0.2
			c-1,0-2-0.3-2.9-0.8c-0.9-0.5-1.6-1.3-2.1-2.2C120.9,67.8,110,71.6,106,73c0.2,1.3,0.1,2.5-0.2,3.8c5.2,0.9,17.9,2.9,29.1,4.7
			c0.1-0.5,0.3-0.9,0.5-1.3c0.7-1.2,1.9-2.1,3.3-2.5c1.4-0.4,2.9-0.1,4.1,0.6c1.2,0.7,2.1,1.9,2.5,3.3c0.1,0.5,0.2,1.1,0.1,1.6
			c5.4,0.9,9.2,1.5,9.5,1.5c1.7,0.2,4-0.3,4-0.4c3.3-3.8,5.1-8.3,5.2-13.3c0.1-5.1-1.5-10.3-4.7-14.9c-0.1-0.1-0.2-0.3-0.4-0.4
			c-0.1-0.1-0.2-0.1-0.3-0.2C158.9,55.6,158.8,55.5,158.6,55.4z"/>
		<path class="st0" d="M133,95.6l0.4-0.7l0.8,0c2,0,5.2-0.2,8.9-1.1c4.3-1.1,8.2-2.9,11.5-5.4c0-0.1-0.2-1.8-2-2.2
			c-0.1,0-3-0.5-7.4-1.2c-0.1,0.3-0.2,0.5-0.3,0.7c-0.7,1.2-1.9,2.1-3.3,2.5c-0.4,0.1-0.9,0.2-1.3,0.2c-2.4,0-4.6-1.6-5.2-4.1
			c-0.1-0.3-0.1-0.7-0.2-1c-11.2-1.8-24.4-4-29.5-4.8c-0.2,0.4-0.4,0.9-0.6,1.3c-0.8,1.3-1.8,2.4-3,3.2c1.2,1.9,3.9,6.4,6.6,10.9
			c0.1-0.1,0.3-0.1,0.4-0.2c2.4-0.6,4.9,0.9,5.5,3.3c0.3,1.2,0.1,2.4-0.5,3.4c-0.2,0.4-0.5,0.7-0.9,1c1.5,2.4,2.5,4.1,2.5,4.2
			c1.4,2.1,2.6,2.3,3,2.3c0,0,0.1,0,0.1,0c0,0,0,0,0,0c0,0,0,0,0,0s0,0,0,0c0.1,0,0.2-0.1,0.4-0.1c0.1,0,0.2-0.1,0.3-0.1
			C126.6,104.1,131,98.5,133,95.6z"/>
		<path class="st0" d="M139.1,60.8c-0.1-0.3-0.2-0.5-0.3-0.7c-0.2-0.3-0.5-0.6-0.8-0.8c-0.4-0.2-0.8-0.3-1.2-0.3
			c-0.2,0-0.4,0-0.6,0.1c-0.6,0.2-1.2,0.6-1.5,1.1c-0.3,0.4-0.4,1-0.3,1.5c0,0.1,0,0.3,0.1,0.4c0.1,0.4,0.3,0.7,0.5,1
			c0.2,0.2,0.4,0.4,0.6,0.5c0.6,0.3,1.2,0.4,1.9,0.3c0.6-0.2,1.2-0.6,1.5-1.1c0.2-0.4,0.3-0.8,0.3-1.2
			C139.2,61.3,139.1,61.1,139.1,60.8z"/>
		<path class="st0" d="M111.6,97.7c-0.2-1-1.2-1.6-2.2-1.4c0,0-0.1,0-0.1,0c-0.5,0.1-0.9,0.4-1.1,0.8c-0.3,0.4-0.4,1-0.3,1.5
			c0.2,0.9,1.2,1.5,2.1,1.4c0.1,0,0.1,0,0.2,0c0.4-0.1,0.8-0.4,1.1-0.7c0-0.1,0.1-0.1,0.1-0.2C111.6,98.7,111.7,98.2,111.6,97.7z"/>
		<path class="st0" d="M141.6,80.5c-0.6-0.4-1.4-0.5-2.1-0.3c-0.7,0.2-1.3,0.6-1.7,1.3c-0.4,0.6-0.5,1.4-0.3,2.1
			c0.4,1.5,1.9,2.4,3.4,2c0.7-0.2,1.3-0.6,1.7-1.3c0.4-0.6,0.5-1.4,0.3-2.1S142.2,80.9,141.6,80.5z"/>
		<path class="st0" d="M41.6,61.7c0.8,0,21.8,0.8,28.6,1.1c0-0.1,0.1-0.1,0.1-0.2c-9.8-5.3-20.3-10.9-20.5-11
			c-2.1-1.1-3.5-0.2-3.8,0.1c-2.4,2.3-4.3,4.7-5.9,7.3C40.2,58.9,39.9,61.6,41.6,61.7z"/>
		<path class="st0" d="M66.5,100.8c2.1-0.5,4.3-0.1,6,1c6.7-7.8,13-15.1,16.3-18.9c-1.1-0.8-2-1.8-2.7-3l-21.9,8.9
			c0.2,1.3,0,2.6-0.7,3.7c-0.4,0.7-1,1.3-1.6,1.7l3.8,6.9C65.9,101,66.2,100.9,66.5,100.8z"/>
		<path class="st0" d="M58.2,118.5c0.1-0.2,2-2.3,4.7-5.5c-0.8-0.9-1.4-2-1.7-3.2c-0.5-1.9-0.2-3.9,0.8-5.6c0.5-0.9,1.2-1.6,1.9-2.2
			L60,95c-0.4,0.1-0.8,0.1-1.2,0.1c-1,0-1.9-0.3-2.8-0.8c-1.2-0.7-2.1-1.9-2.5-3.3c-0.1-0.6-0.2-1.1-0.1-1.7
			c-5.8-0.8-19.8-2.9-20.1-2.9c-3-0.4-2.9,1.9-2.9,2.3c0.1,0.6,0.2,1.3,0.3,2c1.9,10.6,8.5,14.2,12.3,15.4l0.8,0.3l0.2,0.8
			c0.6,2.4,2.2,7,6.7,10.1c1.4,0.9,3,1.7,4.8,2.2C55.5,119.6,57.1,119.7,58.2,118.5z"/>
		<path class="st0" d="M53.7,87.9c0.1-0.3,0.3-0.6,0.4-0.9c0.7-1.2,1.9-2.1,3.3-2.5c1.4-0.4,2.9-0.1,4.1,0.6
			c0.8,0.5,1.4,1.1,1.9,1.9l21.7-8.8c-0.2-0.4-0.3-0.8-0.4-1.3c-0.6-2.2-0.4-4.4,0.4-6.5c-1.6-0.9-4-2.1-6.8-3.6
			c-0.6,1.1-1.6,2-2.9,2.3c-0.4,0.1-0.7,0.1-1.1,0.1c-2,0-3.9-1.4-4.4-3.4c-0.1-0.5-0.1-1-0.1-1.4c-6.3-0.2-28.9-1.1-29.3-1.1
			c-2.3,0-3.2,1.8-3.3,2.3c-0.5,1.5-0.8,3.1-1,4.7l-0.1,0.5l-0.4,0.4c-1.6,1.6-4.8,5.6-5.4,12.4c0,0,1.2,1.2,2.5,1.4
			C33.5,85,47.9,87.1,53.7,87.9z"/>
	</g>
	<path class="st0" d="M68.4,35.6C68.4,35.6,68.4,35.6,68.4,35.6C68.4,35.6,68.5,35.6,68.4,35.6C68.5,35.6,68.4,35.6,68.4,35.6z"/>
	<path class="st0" d="M114,108.4c0.1-0.2,0.1-0.4,0.2-0.7c-0.2,1-1.6,1.9-1.6,1.9h0c0,0,0,0,0,0C113.2,109.5,113.7,109.1,114,108.4z
		"/>
	<path class="st0" d="M106.5,31.6l0,0.1c0.3-0.9,1.6-1.8,1.6-1.8C107.4,30.2,106.7,30.8,106.5,31.6z"/>
	<path class="st0" d="M158.6,55.4c0.2,0.1,0.3,0.1,0.4,0.2C158.9,55.6,158.7,55.5,158.6,55.4z"/>
	<path class="st0" d="M159.3,55.8c-0.1-0.1-0.2-0.1-0.3-0.2C159.1,55.7,159.2,55.8,159.3,55.8z"/>
	<path class="st0" d="M158.2,55.3c0.1,0,0.2,0.1,0.4,0.1C158.5,55.4,158.4,55.3,158.2,55.3z"/>
	<path class="st0" d="M118.4,107.9c0,0-0.1,0-0.1,0C118.3,108,118.4,107.9,118.4,107.9z"/>
</g>
</svg>
