<svg xmlns="http://www.w3.org/2000/svg" viewBox="0 0 544.14 231.39"><defs><style>.cls-1{fill:#fff;}</style></defs><g id="Layer_2" data-name="Layer 2"><g id="Layer_2-2" data-name="Layer 2"><path class="cls-1" d="M362.39,123.75c.78-4.63,3.4-8.22,6.55-11.49a6.41,6.41,0,0,0,2-5.93,18.22,18.22,0,0,1,1.21-10c.58-1.39,1.3-2.77,2.89-2.54,1.8.25,1.69,2,1.66,3.38,0,2.36-.23,4.72-.39,7.6,3.67-3,6.91-5.76,10.2-8.43a10.83,10.83,0,0,1,2.78-1.72c1.13-.44,2.52-.61,3.23.66s-.42,2.09-1.26,2.71c-4,3-7.79,6.23-11.53,9.55-1.37,1.21-2.61,2.24-1.59,4.25s3,2.94,5,2.09c6-2.47,10.95-6.15,13.47-12.41A15,15,0,0,1,401.79,95a4.48,4.48,0,0,1,5.11,0c1.59.94,1.81,2.57,1.49,4.23-.28,1.44-1,2.49-2.71,1.76a1.6,1.6,0,0,0-1.91.1c-2.26,1.9-3,10.12-1,12.22,1.32,1.35,3,1,4.48.34a21.37,21.37,0,0,0,8.05-6.11,3.49,3.49,0,0,0,.89-1.83c.13-4.19,2.66-7,5.4-9.69a4.63,4.63,0,0,1,2.21-1.43c1.81-.29,4-1.07,5.27.81s.73,3.84-.4,5.66a12.49,12.49,0,0,1-5.34,4.69c-1.41.68-2.47,1.49-1.7,3.22.68,1.52,1.93,2.52,3.59,1.94,3.91-1.35,7.5-3.29,10.15-6.62.95-1.2.64-2.67.73-4a84.17,84.17,0,0,1,4.3-20.4c.58-1.77,1.57-4,3.82-3.2s2.35,3.18,1.11,5.32c-.66,1.16-.59,2.51-.84,3.78-1.15,5.84-2.29,11.67-3.26,17.55s-.62,11.94-.87,17.89c0,1-.35,2.3.8,2.66s1.73-.94,2.13-1.75c2.59-5.18,5.73-10.21,7.37-15.69,1.28-4.28,1.49-9,2.11-13.55A73.92,73.92,0,0,1,456.22,79c.47-1.36,1.52-2.81,3.34-2.41,2.12.46,2,2.3,1.75,3.88-.43,2.44-1.1,4.84-1.67,7.26a153,153,0,0,0-4.19,30.71,19.62,19.62,0,0,0,.56,4.14c.12.64.17,1.55,1.09,1.57s1.22-.71,1.48-1.32c2.83-6.55,7.05-12.51,8-19.85.52-4.11,5.9-9.7,10.28-8.66,2.56.61,3.87,2.54,2.7,4.83a13,13,0,0,1-6.65,6.61c-1.34.53-2.9.65-1.93,2.7.86,1.81,2.25,3.09,4.27,2.32a29.3,29.3,0,0,0,8.08-4.48c2.58-2.07,2.74-5.24,4.18-7.81.29-.51.33-1.18.66-1.66,1-1.37,1.95-3.22,4-2.22,1.85.91,1.17,2.85.7,4.29a15.4,15.4,0,0,0-1.19,5.19c1.57-1.91,2.8-3.46,4.1-5,.94-1.07,2-2.06,3.6-1.67s1.44,1.91,1.81,3.11a32.58,32.58,0,0,1,1.36,9.14c0,1.21.33,2.4,1.81,2.78s2-.55,2.77-1.35c3.8-4,5.95-8.51,5.3-14.3-.72-6.39,1.54-12.67,1.18-19.1-.22-3.74-.72-4.3-4.27-3.21-4.55,1.4-9.1,2.83-13.6,4.39a11.78,11.78,0,0,0-4.54,2.83c-1.59,1.63-3.22,1-4.4-.46s.39-2.39,1.28-3.11c3.06-2.49,6.78-3.65,10.42-5,4.66-1.78,9.57-2.58,14.27-4.18a3.7,3.7,0,0,0,2.84-3,13.83,13.83,0,0,1,1.61-4.17c.56-1,1.34-2.19,2.81-1.79,1.27.35,1.67,1.48,2.12,2.67.54,1.42-1.15,3.6,1,4.18,1.27.35,2.88-.57,4.34-.85,4.66-.87,9.36-.54,14-.47,1.24,0,1.89,1,2.65,1.78v2.4a94.73,94.73,0,0,0-20,1.34c-3.94.69-4.66,1.43-5.09,5.64-1.76,17.23-1.35,34.5-1.32,51.77,0,1.4,0,2.8,0,4.2-.05,1.19-.49,2.16-1.88,2.3s-2-.61-2.42-1.77a15.79,15.79,0,0,1-1.11-5.85c0-4.88,0-9.76,0-15-1.68.59-2.27,1.82-3.15,2.67-4.13,4-8.85,2.82-10.6-2.63A29.6,29.6,0,0,1,497,104.9c-2.09,1.52-2.56,3.66-3.74,5.28-.77,1-1.31,2.26-2.15,3.24-2.36,2.75-4.43,2.58-5.93-.71-.86-1.88-1.49-1.89-3-.73a17.1,17.1,0,0,1-7,3.21,5.46,5.46,0,0,1-5.11-1.09c-2.18-2.1-2.95-.6-3.72,1.24a97.16,97.16,0,0,1-5,10.52c-1.17,2-2.61,3.47-5.2,3.35-2.4-.1-2.92-1.9-3.86-3.59-1.62-2.91-.85-6.07-1.28-9.29-1.32.37-1.32,1.41-1.64,2.28a34.27,34.27,0,0,1-5.3,9.32c-2,2.45-4.69,2.22-6.45-.47-2.29-3.49-1.61-7.72-2.63-11.53a10.46,10.46,0,0,1-.05-2.1c-.06-.87.35-2-.48-2.53s-1.55.56-2.31.92c-1.8.85-3.55,1.84-5.38,2.62a6.57,6.57,0,0,1-7.27-1.34c-2.1-1.94-3.41-1.11-4.95.51a13.18,13.18,0,0,1-11,4.39c-3.35-.25-6-1.84-7-5.06-.83-2.72-1.9-2.53-3.68-.88a32.88,32.88,0,0,1-6.54,4.74c-4,2.21-8,1.72-11-1.72-1.49-1.67-2.4-1.67-3.63.18-1.37,2.08-3,4-4.39,6-.94,1.38-1.9,2.59-3.73,2.63Z"/><path class="cls-1" d="M208.64,155.77c.64-7.46,1.61-14.9,1.26-22.41-.26-5.71-1.65-11.22-2.69-16.8a60.85,60.85,0,0,0-7.89-19.82A45.32,45.32,0,0,0,187.5,83.41c-5.09-3.85-10.32-7.53-15.36-11.45-4.26-3.3-4-6.46.42-9.48s9.4-4.33,14.36-5.8c4.46-1.32,9.12-2.06,13.47-3.67,3.53-1.31,7.22-1.6,10.79-2.22,4.61-.8,9.31-2.33,13.8-2.26,6.93.11,14-.52,20.87.84,4.69.91,9.4,1.68,14.13,2.34a19.75,19.75,0,0,1,6.42,2.36c1,.55,2,1.56,1.47,3s-1.83,1.37-3.05,1.08a162.09,162.09,0,0,0-22.64-3.69,97.71,97.71,0,0,0-11.09-.14c-2.14,0-3.15,1.12-3.54,3.25-2.19,12-4.48,24-6.32,36.14q-2.59,17.11-4.37,34.32c-1,9.69-2.28,19.35-2.82,29.09a.92.92,0,0,1,0,.29c-.71,2-.68,4.93-3.61,4.71-3.21-.25-1.45-3.07-1.74-4.81A9.25,9.25,0,0,1,208.64,155.77Zm3-40.85c1.44-1.08,1.23-2.26,1.24-3.31.16-9.41,2.08-18.64,3.53-27.84C217.76,75,218.7,66,221.7,57.53c.37-1.07.54-2.77-1.43-2.43q-8.36,1.47-16.65,3.27c-4.94,1.09-9.87,2.26-14.73,3.68-4,1.16-8.11,2-11.86,3.86-2.87,1.46-3,2.28-.5,4.15s5.11,3.49,7.57,5.36c6.67,5.08,13,10.43,17.74,17.58A77.13,77.13,0,0,1,211.61,114.92Z"/><path class="cls-1" d="M362.39,123.75l1.15.58c1.55.8,3.65.42,4.75,2.22.6,1,.95,2.07.23,3.08s-1.56.42-2.41.08a20.17,20.17,0,0,0-6.76-1.14,137,137,0,0,0-21.54.7,68.65,68.65,0,0,0-21.46,5.92c-2.46,1.15-3.92,2.88-3.76,5.84.12,2.25.3,4.57-1.4,6.56a2.59,2.59,0,0,1-3.66.74c-2.92-1.61-4.72-6-2.7-8.53,5.72-7.16,3.56-15.84,5.15-23.77.48-2.4.07-5,.14-7.48.06-1.87-.24-2.58-2.37-1.6-1.79.81-3.36,2.22-5.44,2.36-1,.06-2.11.14-2.56-1s.41-1.66,1.07-2.26a21,21,0,0,1,6.61-4c2.61-1,3.92-2.58,4.07-5.77.38-8,1.39-15.88,2.14-23.82.07-.77.67-1.68-.09-2.26s-1.66.13-2.45.53A189.38,189.38,0,0,0,292.93,81a7.89,7.89,0,0,1-2.45,1,2.34,2.34,0,0,1-2.43-.86c-.77-1,.14-1.63.61-2.35,2-3.1,5.57-4.14,8.4-6.12a80.67,80.67,0,0,1,13.66-7.38c2.64-1.17,4.3-2.57,4.35-6,0-3.75,1.29-7.45,1.1-11.29a2.35,2.35,0,0,1,2.31-2.64c1.73-.12,2.12,1.26,2.34,2.57.56,3.41-.54,6.75-.5,10.15,0,2.15.2,2.8,2.66,1.77,9.9-4.19,20.14-7.66,30.77-9,7.81-1,15.76-3,23.78-.65,2.26.68,3.5,1.6,3.51,4s-1.09,4.17-3.56,4.84c-1.83.49-2.71-.2-1.84-1.94,1.13-2.25.11-2.48-1.78-2.55a92.91,92.91,0,0,0-30.94,3.9c-6.65,2-13.2,4.35-19.77,6.6a4.72,4.72,0,0,0-3.45,4.33c-1.16,8.59-1.69,17.24-2.62,25.85-.21,1.94.62,2.5,2.21,1.86a99,99,0,0,1,12-3.59,31.59,31.59,0,0,1,7.72-.78,2.71,2.71,0,0,1,2.57,4c-.31.66-.79,1.46-1.54,1-4.15-2.31-7.68.82-11.48,1.31-2.92.37-5.7,1.75-8.58,2.49-2.67.69-4.35,2.18-4.23,5,.32,7.42-1.82,14.65-1.56,22.06.06,1.82.33,2.44,2.2,1.68,8-3.25,16.13-5.54,24.86-5.68a118.74,118.74,0,0,0,13.39-1.41C357.27,123,359.81,123.68,362.39,123.75Z"/><path class="cls-1" d="M227.86,119.21c2-4.35,3.7-8.8,6.09-12.91,1.35-2.3,2.5-5.55,5.8-4.49,2.84.91,2.9,4.13,3,6.83,0,.8,0,1.6.13,2.39.15,1.15-.57,2.92.53,3.31,1.29.47,2.09-1.21,2.82-2.2,1.64-2.24,3.06-4.53,3.34-7.51.48-5,5.81-10.32,9.82-10.32,1.46,0,2.76.17,3.44,1.79.61,1.46.94,2.68-.16,4.16a17,17,0,0,1-5.95,5.37c-1.7.84-2.21,2.07-1.46,3.65s2.24,2.09,4,1.32a32,32,0,0,0,9.78-6.28c.93-.89,2.14-2.06,3.35-.95s.3,2.61-.68,3.64a29.26,29.26,0,0,1-11.27,7.67c-2.46.88-4.89,1-7.11-.76-1.37-1.08-2.46-.88-3.5.61a38.28,38.28,0,0,1-3.15,3.6,5.19,5.19,0,0,1-5.46,1.61c-1.92-.52-2.46-2.1-2.61-3.94s-1.62-3.69-1.26-5.86c-3.49,5.12-4.83,11-6.71,16.71-.12.38-.13.79-.28,1.16-.66,1.67-1.21,3.73-3.44,3.58s-2.82-2.19-3.28-4.09c-2.18-9.18-2-18.37-.64-27.67,1-6.58,1.11-13.29,3.49-19.61a6.68,6.68,0,0,1,.48-1.41c.67-1,1.4-2.25,2.77-1.81a2.66,2.66,0,0,1,1.57,3,29.28,29.28,0,0,1-.67,5.64c-1.9,6.62-1.17,13.49-2.2,20.18C227.79,110.11,228.16,114.63,227.86,119.21Z"/><path class="cls-1" d="M376.78,184.89c0-.39,0-.79,0-1.19,0-6.8.95-7.62,7.74-6.41,2,.36,4.23.27,5.7,2.19,1.66,2.17,3.44,4.27,2.22,7.27-1.37,3.39-3.09,6.12-7.5,6.07C375.6,192.7,376.88,193.37,376.78,184.89Zm4.19-.06c.4,1.61-1,4.13,2.27,4.19s5.46-1.54,5.36-3.84-2.69-4.45-5.5-4.35C380.08,180.93,381.38,183.33,381,184.83Z"/><path class="cls-1" d="M213.38,192.78c-2,.11-4,0-5.61-1.76a2.07,2.07,0,0,1-.44-2.7c.66-1.07,1.65-1,2.63-.5a7.48,7.48,0,0,0,3,1.21c.85,0,2.07.47,2.32-.67s-1-1.36-1.82-1.51a9.42,9.42,0,0,1-3.69-1.12c-1.48-1-2.87-2.13-2.52-4a5.15,5.15,0,0,1,3.22-4,7.14,7.14,0,0,1,8,1.13c.66.54,1.54,1.24,1,2.26s-1.66,1-2.63.72c-1.53-.5-3.79-2.17-4.41-.35s2.29,1.78,3.75,2.29c2.41.84,4.08,2.13,3.83,4.94-.21,2.41-2.14,3.95-5,4.08C214.56,192.8,214.06,192.78,213.38,192.78Z"/><path class="cls-1" d="M333.69,181.9c-.29,1.77-.48,3.56-.89,5.3-1,4.25-3.2,5.76-7.86,5.56-3.64-.16-5.26-1.93-6-6.11a26.9,26.9,0,0,1-.31-7.16c.1-1.07.33-2.45,1.7-2.45,1.61,0,2.1,1.5,2.16,2.78.09,1.88-.35,3.74.14,5.65.42,1.67.81,3,2.93,3.11a3.38,3.38,0,0,0,3.87-3,55.63,55.63,0,0,0,.39-5.65c.09-1.13-.28-2.83,1.35-2.88s2.17,1.49,2.31,3a17.8,17.8,0,0,1,0,1.79Z"/><path class="cls-1" d="M440.58,189.54c.5-3.29-1.83-4.75-2.91-6.8a14.44,14.44,0,0,0-.93-1.17c-.93-1.31-3-2.83-1.07-4.25,1.59-1.18,2.93.92,4.12,2a12.89,12.89,0,0,1,1,1.46c1.13,1.4,2.12,2.09,3.3-.1a15.19,15.19,0,0,1,2.71-3.15,1.6,1.6,0,0,1,2.16-.4c.84.55.57,1.41.4,2.18a9.22,9.22,0,0,1-2.53,4,8.58,8.58,0,0,0-2.28,6c0,1.5.12,3.33-2.05,3.26C440.16,192.52,440.53,190.61,440.58,189.54Z"/><path class="cls-1" d="M269,177c1.59.08,3.19.08,4.77.26a2,2,0,0,1,1.88,1.68c.12,1.18-.86,1.6-1.74,1.64-2.48.11-2.84,1.61-2.8,3.65a54.84,54.84,0,0,1-.21,6.28c-.11,1.13-.65,2.18-2.08,2.08s-1.81-1.11-1.83-2.3c0-2.2,0-4.4,0-6.59,0-1.7-.38-2.94-2.44-3-1.15,0-2.31-.42-2.18-1.88s1.28-1.66,2.44-1.7c1.39,0,2.79,0,4.19,0Z"/><path class="cls-1" d="M88,80.94c-.78,4-2.58,7.45-6.18,9.71a25.75,25.75,0,0,1-15.24,4.13c-.66,0-1.84.58-1.85-.72,0-.92,1-1,1.81-1.24A53.39,53.39,0,0,0,81,87C83.71,85.4,85.24,82.67,88,80.94Z"/><path class="cls-1" d="M89.91,54.79a22.12,22.12,0,0,1-.13,2.64,1.8,1.8,0,0,1-1.45,1.68c-1,.14-1.37-.57-1.65-1.36-.62-1.81-2-3.53-.5-5.54.5-.67.55-1.87,1.78-1.63a2.19,2.19,0,0,1,1.75,2.13C89.8,53.49,89.86,54.28,89.91,54.79Z"/><path class="cls-1" d="M32,66.74c.33-1.17-.37-3.32,1.66-3.12s2,2.4,2,4c0,1.28.21,3.4-1.48,3.33C31.86,70.87,32.18,68.51,32,66.74Z"/><path class="cls-1" d="M127.13,123.34c-7.57,6.42-14.81,8.95-7.31-3.57,11.55-12.2,29.71-18.14,43-27.74,5.25-1.11-14.18-25.68-15.87-32.15-4.51-9.34-14.29-7.41-11.87-20.2-1.07-5.21,5.63-8.59,4.54-13.31-14.22-5.31-9.55-19.93,3-7.83,13.65,11.35,8.87,18.26,9.41,33.57C185.91,104.4,165.66,91.35,127.13,123.34Z"/><path class="cls-1" d="M55.13,27.14c-1.25-1.17.11-1.76.64-2.36C63.57,16,72.13,8,82.61,2.39c1.22-.66,2.5-.55,3.76-.8C90.29.83,94.28.6,98.24.12c6.68-.81,10.94,2.58,14.55,7.37,3.48,4.61,4.79,10,6.11,15.61,2.72,11.48,1.8,23,1,34.51-.51,7.17-2.17,14.31-3.64,21.41-1.09,5.25-1.48,10.65-2.22,16s-1.56,10.63-2.28,16c-.77,5.62-1.43,11.25-2.2,16.87s-1.6,11.22-2.42,16.84c-.67,4.61-1.42,9.22-2,13.85-.76,6-1.56,12-2.79,18-.68,3.28-.07,6.76-1.54,10-.51,1.13-.87,1.89-2.3,1.7a70.39,70.39,0,0,0-15.42-.44c-2.26.2-2.32-1.77-3.11-3-.25-1.45-.57-2.86-2-3.65l-.38-.57c.64-1.32-.27-2.28-.86-3.24a144,144,0,0,0-9.21-13.14C55.43,148.65,41.56,134.83,29,119.86c-3.06-3.64-6.3-7.16-9-11A128,128,0,0,1,1.63,73c-.06-.53-.11-1.06-.17-1.59C1.8,69.28.55,67.52,0,65.58V47c1.76-8.78,4.58-17.12,10.23-24.26a.34.34,0,0,0,.29-.29c3.21-3.06,7.32-4.68,11.05-6.91l2.06-.23c5.83.15,11.64.47,17,3.07a4.07,4.07,0,0,1,2.47,1.06c.13.75.52.95,1.18.51,2.34,1.6,4.77,3.1,7,4.87a17.33,17.33,0,0,0,3.91,2.29c-.37.94-.47,1.71-2,1-4.73-2.07-9.51-4.05-14.67-4.85l-2.74-.11a10.23,10.23,0,0,0-6.69,0l-2.24.11c-6.15.81-8.87,5.42-11.27,10.28C12.7,39.4,12,45.81,11.44,52.12c-.6,6.89,1,13.66,2.75,20.34.18.69.53,1.4,1.36,1.37s.93-1,1-1.59c.11-1.69,0-3.39.14-5.08s-.46-3.52.84-5a1.4,1.4,0,0,1,.9,1.27c.66,5.14,1.93,10.16,2.91,15.23.51,2.69,1.74,2.5,3.51,1.63a106.17,106.17,0,0,1,13.82-6C43,72.88,43,72.75,42.77,67.91c-.11-2.3-.39-4.59-.33-6.88s-1-3.15-3.26-3.11c-4.49.1-9,.08-13.49,0-1.89,0-3.85.23-5.7-.95,3.17-.06,5.87-1.68,8.9-2.1,4-.55,8.07-1.16,12-2.08,5.58-1.29,5.58-1.43,7,3.79.48,1.72.94,2.6,3,1.5,4.9-2.56,10.09-3.72,15.47-1.53,2.25.92,2.22-.33,1.91-1.74-.47-2.13-1-4.23-1.39-6.4s.63-3.2,2.18-4q13.63-6.87,27.31-13.63c1.44-.71,2.4-.48,2.6,1.49.83,8.23,1.8,16.44,2.66,24.66a5.37,5.37,0,0,1-.92,4.47c0-3.24-1.65-5.12-2.16-7.47-.84-3.88-2-7.69-3.09-11.51-.78-2.69-1.74-3-4.19-1.66-4.8,2.6-9.53,5.39-14.49,7.63-2.18,1-2.45,2.16-2.35,4.12.13,2.82,1.07,5.49,1.38,8.24S77.37,64,79.79,63.9c5-.26,9.8-2,14.83-1.48,1,.09,2.15-.39,2.9.95a163,163,0,0,1-15.68,5c-2.57.76-5.24,1.15-7.87,1.7-1.59.33-2.41-.23-2.63-1.94-.16-1.26-1-2.49-1-3.72,0-3.46-2-3.84-4.53-3.13-4.74,1.34-9.67,1.23-14.47,2.21-2,.41-2.4,1.12-2.29,2.91.18,2.89,1.42,5.6,1.29,8.54,0,1.26,0,2.21-1.58,2.76-8.41,3.06-16.6,6.71-25.14,9.4-2.06.65-2.69,1.94-1.65,3.9,1.21,2.3,2.37,4.61,3.65,6.87q7,12.35,15,24.06c7.73,11.35,16.38,22,24.89,32.72,6.06,7.64,12.26,15.15,17.27,23.54,1.89,3.17,4.71,3.76,7.89,1.68a3.3,3.3,0,0,0,1.83-2.82c.46-12.46,1.92-24.84,3-37.25,1.19-13.6,2.68-27.17,4.08-40.74,1-10,2-20,3.69-29.93,1.26-7.25,2.25-14.57,2.88-21.9.82-9.45,1-18.94-1.45-28.24a14.33,14.33,0,0,0-3-6.12c-1.24-1.36-2.13-3.45-4.55-3.25a16.85,16.85,0,0,0-7.8.08,23.45,23.45,0,0,0-8.32,2.58c-3.74,1.91-7.74,3.36-11,6.14-1.35,0-1.79,1.53-3,1.85-1-.35-1.43.48-1.93,1.09a1.62,1.62,0,0,0-1.26.9,13.15,13.15,0,0,0-3.08,1.62C59,25.06,57.5,26.91,55.13,27.14Z"/><path class="cls-1" d="M76.71,203.79a1.91,1.91,0,0,0,1.09-1.43L84.6,196l1-.85,9.58-3.78,2.84-.09,5,0,2.24.13a12,12,0,0,0,3.21,2.08c1.07.47,1.36,1.68,1.48,2.77.07.74-.67.88-1.24,1-1.76.42-4.08,1.41-4.24,2.62-.23,1.74,2.35,1.88,3.77,2.68,2.65,1.48,3.77,4.28,2.14,5.42-4.51,3.15-8.66,6.77-14.53,7.7A15.53,15.53,0,0,0,87,220a.35.35,0,0,0-.34.27c-1.85,0-3.14,1.08-4.48,2.12a.36.36,0,0,0-.31.31c-1.69.23-2.85,1.55-4.36,2.15-2,.77-2.51.17-1.83-1.76a.38.38,0,0,0,.24-.37c.87-1,1.94-1.91,1.74-3.46l1.08-1A16.27,16.27,0,0,0,81.6,214a.34.34,0,0,0,.29-.29,15.48,15.48,0,0,0,1.86-1.85c.37-.49,1.43-.78.9-1.63a1.44,1.44,0,0,0-1.91-.31c-1.8,1-3.88.72-5.71,1.47l-1.68,0c-1.61-1.33-.85-3-.1-4.16A15.11,15.11,0,0,0,76.71,203.79Z"/><path class="cls-1" d="M82,231.2c-1.18,0-2.36,0-3.55,0-.75,0-1.59.57-2.13-.39s.71-1.26.87-2l2.77-2.14c5.72-3.05,11.36-6.24,17.39-8.73,5.4-2.23,11.68-1.31,15.65,2.91,2.09,2.23,2.11,6.42,0,6.53-3.24.16-5.81,2-8.75,2.8a5.75,5.75,0,0,1-3.24.25c-5.86-1.81-11.56.59-17.35.61Z"/></g></g></svg>