<?xml version="1.0" encoding="iso-8859-1"?>
<!-- Uploaded to: SVG Repo, www.svgrepo.com, Generator: SVG Repo Mixer Tools -->
<svg height="800px" width="800px" version="1.1" id="Layer_1" xmlns="http://www.w3.org/2000/svg" xmlns:xlink="http://www.w3.org/1999/xlink" 
	 viewBox="0 0 512 512" xml:space="preserve">
<path style="fill:#027EA8;" d="M255.999,504C119.033,504,8,392.966,8,256s111.034-247.999,248-247.999"/>
<path style="fill:#F14507;" d="M255.999,8.001c136.966,0,248,111.034,248,248s-111.034,248-248,248"/>
<ellipse style="fill:#84DCCF;" cx="255.995" cy="255.996" rx="143.08" ry="248"/>
<path style="fill:#FBA218;" d="M255.999,8.001c79.019,0,143.077,111.034,143.077,248s-64.057,248-143.077,248"/>
<path d="M437.018,74.981C388.667,26.63,324.379,0.001,255.999,0.001c-68.381,0-132.668,26.629-181.02,74.981
	C26.629,123.333,0,187.62,0,256s26.629,132.667,74.981,181.019s112.639,74.981,181.02,74.981c68.38,0,132.668-26.629,181.019-74.981
	C485.372,388.667,512,324.38,512,256S485.371,123.333,437.018,74.981z M425.706,86.295c43.591,43.591,68.338,101.002,70.172,162.35
	h-88.867c-1.065-64.877-16.203-125.714-42.91-172.006c-12.427-21.541-26.733-38.86-42.327-51.55
	C360.674,36.109,396.33,56.919,425.706,86.295z M247.594,16.482v232.163H120.993c1.054-62.096,15.431-120.096,40.766-164.01
	C185.254,43.911,215.468,20.039,247.594,16.482z M247.594,264.405v231.112c-32.126-3.557-62.34-27.429-85.835-68.154
	c-25.192-43.667-39.546-101.26-40.744-162.96h126.579V264.405z M263.354,495.632V264.405h127.631
	c-1.198,61.698-15.552,119.293-40.744,162.96C326.489,468.533,295.872,492.485,263.354,495.632z M263.354,248.645V16.369
	c32.518,3.147,63.135,27.099,86.886,68.267c25.335,43.915,39.712,101.914,40.766,164.01H263.354V248.645z M86.295,86.295
	c29.377-29.376,65.031-50.186,103.933-61.205c-15.595,12.69-29.9,30.009-42.327,51.55c-26.707,46.292-41.845,107.129-42.91,172.006
	H16.123C17.957,187.296,42.702,129.886,86.295,86.295z M86.295,425.706c-43.342-43.342-68.049-100.346-70.133-161.3h88.851
	c1.211,64.483,16.326,124.913,42.888,170.955c12.427,21.541,26.732,38.86,42.327,51.55
	C151.325,475.891,115.67,455.082,86.295,425.706z M425.706,425.706c-29.376,29.376-65.031,50.186-103.933,61.205
	c15.595-12.689,29.9-30.008,42.327-51.55c26.563-46.042,41.678-106.473,42.888-170.955h88.851
	C493.754,325.36,469.048,382.364,425.706,425.706z"/>
</svg>